<?xml version="1.0" encoding="iso-8859-1"?>
<!-- Generator: Adobe Illustrator 19.0.0, SVG Export Plug-In . SVG Version: 6.00 Build 0)  -->
<svg version="1.1" id="Capa_1" xmlns="http://www.w3.org/2000/svg" xmlns:xlink="http://www.w3.org/1999/xlink" x="0px" y="0px"
	 viewBox="0 0 512.005 512.005" style="enable-background:new 0 0 512.005 512.005;" xml:space="preserve">
<g>
	<path style="fill:#AFB6BB;" d="M83.288,198.693L31.537,330.95l46-34.498l35.795,7.082c14.318-37.493,30.829-70.165,48.79-98.724
		L83.288,198.693z"/>
	<path style="fill:#AFB6BB;" d="M313.298,428.71L181.04,480.462l34.498-46l-7.082-35.795c37.493-14.318,70.165-30.829,98.724-48.79
		L313.298,428.71z"/>
</g>
<path style="fill:#EBBA16;" d="M139.357,382.011l-9.378-9.378c-23.695-17.893-58.577-7.483-71.001,19.839L8.533,503.466
	l110.986-50.446C146.841,440.597,157.259,405.706,139.357,382.011z"/>
<path style="fill:#E7ECED;" d="M503.066,8.932c0,0-276.018-23.004-396.774,293.271l40.573,40.573l22.364,22.364l40.573,40.573
	C526.062,284.95,503.066,8.932,503.066,8.932z"/>
<polygon style="fill:#AFB6BB;" points="247.45,264.549 189.948,264.549 117.786,394.204 247.45,315.745 "/>
<path style="fill:#DD352E;" d="M331.891,44.77L467.22,180.1C509.628,88.048,503.058,8.924,503.058,8.924
	S423.942,2.362,331.891,44.77z"/>
<circle style="fill:#366DB6;" cx="324.757" cy="187.19" r="65.054"/>
<g>
	<path style="fill:#4D007E;" d="M31.537,339.483c-1.817,0-3.643-0.58-5.162-1.741c-3.038-2.312-4.173-6.348-2.782-9.898
		l51.751-132.258c1.357-3.464,4.795-5.768,8.516-5.401l71.786,4.787c2.995,0.196,5.666,1.954,7.031,4.633
		c1.365,2.671,1.22,5.871-0.375,8.413c-18.439,29.327-34.609,62.042-48.039,97.222c-1.485,3.899-5.563,6.135-9.642,5.324l-25.01-5
		l-42.954,32.211C35.138,338.92,33.338,339.483,31.537,339.483z M88.954,207.626l-38.542,98.502l22.006-16.502
		c1.945-1.451,4.42-2.014,6.792-1.544l21.724,4.343c11.434-28.952,24.694-56.239,39.541-81.368L88.954,207.626z"/>
	<path style="fill:#4D007E;" d="M181.048,488.994c-2.611,0-5.145-1.203-6.792-3.37c-2.312-3.038-2.321-7.236-0.034-10.291
		l32.211-42.945l-5-25.01c-0.819-4.087,1.433-8.166,5.324-9.642c35.181-13.431,67.887-29.6,97.222-48.039
		c2.543-1.604,5.743-1.741,8.413-0.375c2.679,1.365,4.437,4.036,4.642,7.04l4.787,71.795c0.247,3.712-1.937,7.159-5.401,8.516
		l-132.258,51.751C183.139,488.798,182.089,488.994,181.048,488.994z M219.565,411.065l4.343,21.716
		c0.478,2.381-0.085,4.855-1.536,6.792l-16.502,22.006l98.502-38.542l-3.439-51.512
		C275.805,386.371,248.525,399.631,219.565,411.065z"/>
	<path style="fill:#4D007E;" d="M117.795,402.737c-2.15,0-4.292-0.819-5.922-2.389c-2.782-2.679-3.413-6.912-1.536-10.291
		l72.162-129.664c1.51-2.705,4.36-4.386,7.458-4.386h57.494c4.71,0,8.533,3.823,8.533,8.533v51.197c0,2.986-1.562,5.751-4.113,7.296
		l-129.664,78.467C120.841,402.336,119.314,402.737,117.795,402.737z M194.965,273.081l-54.081,97.18l98.033-59.328v-37.86h-43.952
		V273.081z"/>
	<path style="fill:#4D007E;" d="M209.795,414.239c-2.227,0-4.403-0.87-6.033-2.5l-40.573-40.573
		c-1.835-1.835-2.739-4.403-2.449-6.98s1.732-4.881,3.925-6.272l74.252-46.879v-37.962h-43.927l-40.65,73.808
		c-1.297,2.347-3.618,3.951-6.272,4.335c-2.671,0.358-5.333-0.512-7.236-2.415l-40.573-40.573c-2.381-2.381-3.14-5.93-1.937-9.079
		C219.949-19.413,500.942,0.203,503.775,0.425c4.155,0.35,7.449,3.643,7.799,7.799c0.239,2.824,19.847,283.817-298.732,405.451
		C211.852,414.06,210.819,414.239,209.795,414.239z M182.806,366.652l29.097,29.097c156.448-61.342,224.966-162.054,254.908-236.136
		c26.528-65.643,28.354-122.522,28.039-142.42c-44.242-0.623-271.828,10.521-378.599,282.904l28.61,28.619l37.604-68.279
		c1.502-2.722,4.36-4.42,7.475-4.42h57.511c4.71,0,8.533,3.823,8.533,8.533v51.197c0,2.927-1.502,5.649-3.976,7.219L182.806,366.652
		z"/>
	<path style="fill:#4D007E;" d="M8.533,511.999c-2.219,0-4.403-0.862-6.033-2.5c-2.517-2.509-3.208-6.323-1.732-9.565
		l50.446-110.986c7.27-15.999,21.247-27.655,38.338-31.998c16.101-4.079,32.706-0.845,45.573,8.883
		c2.449,1.852,3.643,4.795,3.345,7.697c2.893-0.307,5.845,0.887,7.697,3.345c9.727,12.876,12.961,29.489,8.874,45.574
		c-4.343,17.091-15.999,31.068-31.989,38.329L12.066,511.231C10.931,511.743,9.728,511.999,8.533,511.999z M103.238,372.292
		c-3.14,0-6.323,0.393-9.488,1.195c-12.04,3.055-21.887,11.263-26.998,22.509l-41.034,90.285l90.277-41.034
		c11.246-5.12,19.455-14.958,22.509-26.998c2.159-8.516,1.365-17.211-2.133-24.736l-14.378,8.132
		c-3.328,1.886-7.517,1.323-10.231-1.399c-2.713-2.705-3.285-6.894-1.399-10.231l8.123-14.378
		C113.75,373.427,108.554,372.292,103.238,372.292z"/>
	<path style="fill:#4D007E;" d="M467.22,188.641c-2.244,0-4.42-0.887-6.033-2.5l-135.33-135.33
		c-1.971-1.971-2.858-4.787-2.364-7.534c0.495-2.748,2.295-5.086,4.83-6.246C421.348-5.821,500.447,0.169,503.775,0.434
		c4.155,0.35,7.449,3.643,7.799,7.799c0.273,3.319,6.263,82.426-36.597,175.451c-1.169,2.534-3.498,4.335-6.246,4.83
		C468.227,188.598,467.724,188.641,467.22,188.641z M346.738,47.543l117.718,117.718c28.824-68.254,30.744-127.701,30.402-148.103
		C474.473,16.817,414.838,18.796,346.738,47.543z"/>
	<path style="fill:#4D007E;" d="M324.8,260.751c-18.84,0-37.689-7.168-52.033-21.52c-28.696-28.696-28.696-75.378,0-104.074
		s75.378-28.696,104.074,0s28.696,75.378,0,104.074C362.489,253.575,343.649,260.751,324.8,260.751z M324.8,130.695
		c-14.472,0-28.952,5.512-39.967,16.528c-22.04,22.04-22.04,57.903,0,79.943c22.04,22.04,57.903,22.04,79.943,0
		s22.04-57.903,0-79.943C353.752,136.207,339.271,130.695,324.8,130.695z"/>
	<path style="fill:#4D007E;" d="M324.8,228.233c-10.512,0-21.033-4.002-29.037-12.006c-16.007-16.007-16.007-42.058,0-58.065
		c16.007-16.007,42.067-16.007,58.065,0c3.336,3.336,3.336,8.729,0,12.065c-3.328,3.336-8.738,3.336-12.065,0
		c-9.36-9.36-24.583-9.352-33.935,0c-9.352,9.36-9.352,24.574,0,33.935c9.36,9.36,24.583,9.369,33.935,0
		c3.328-3.336,8.738-3.336,12.065,0c3.336,3.336,3.336,8.729,0,12.065C345.833,224.231,335.321,228.233,324.8,228.233z"/>
</g>
<g>
</g>
<g>
</g>
<g>
</g>
<g>
</g>
<g>
</g>
<g>
</g>
<g>
</g>
<g>
</g>
<g>
</g>
<g>
</g>
<g>
</g>
<g>
</g>
<g>
</g>
<g>
</g>
<g>
</g>
</svg>
